<svg width="148" height="78" viewBox="0 0 148 78" fill="none" xmlns="http://www.w3.org/2000/svg">
<path d="M32.618 73.4017C32.618 74.2487 32.3167 74.9737 31.714 75.5764C31.1113 76.1791 30.4028 76.4803 29.5884 76.4803C28.7414 76.4803 28.0165 76.1791 27.4137 75.5764C26.811 74.9737 26.5098 74.2487 26.5098 73.4017C26.5098 72.5548 26.811 71.838 27.4137 71.2516C28.0165 70.6653 28.7414 70.3721 29.5884 70.3721C30.4028 70.3721 31.1113 70.6653 31.714 71.2516C32.3167 71.838 32.618 72.5548 32.618 73.4017Z" fill="white"/>
<path d="M32.1946 65.0904C32.1946 68.446 33.3837 71.3209 35.7618 73.7154C38.1401 76.1099 41.0232 77.307 44.4113 77.307H53.5494C54.3964 77.307 55.1213 77.0058 55.7239 76.4031C56.3266 75.8004 56.628 75.0754 56.628 74.2284V43.98C56.628 43.133 56.3266 42.4081 55.7239 41.8055C55.1213 41.2028 54.3964 40.9014 53.5494 40.9014C52.7349 40.9014 52.0263 41.2028 51.4236 41.8055C50.821 42.4081 50.5195 43.133 50.5195 43.98V54.5352C48.6301 53.4276 46.594 52.8737 44.4113 52.8737C41.0232 52.8737 38.1401 54.063 35.7618 56.4411C33.3837 58.8192 32.1946 61.7024 32.1946 65.0904ZM38.3029 65.0904C38.3029 63.3964 38.8975 61.9549 40.0866 60.7656C41.2756 59.5766 42.7173 58.9821 44.4113 58.9821C46.1053 58.9821 47.5469 59.5766 48.736 60.7656C49.9251 61.9549 50.5195 63.3964 50.5195 65.0904C50.5195 66.7845 49.9251 68.226 48.736 69.4151C47.5469 70.6042 46.1053 71.1988 44.4113 71.1988C42.7173 71.1988 41.2756 70.6042 40.0866 69.4151C38.8975 68.226 38.3029 66.7845 38.3029 65.0904Z" fill="white"/>
<path d="M72.5585 52.8735C69.1703 52.8735 66.2873 54.0628 63.909 56.4409C61.5309 58.819 60.3418 61.7022 60.3418 65.0903C60.3418 68.4783 61.5309 71.3615 63.909 73.7396C66.2873 76.1179 69.1703 77.3069 72.5585 77.3069C75.9465 77.3069 78.8296 76.1179 81.2078 73.7396C83.586 71.3615 84.7751 68.4783 84.7751 65.0903C84.7751 61.7022 83.586 58.819 81.2078 56.4409C78.8296 54.0628 75.9465 52.8735 72.5585 52.8735ZM72.5585 71.1986C70.8645 71.1986 69.4228 70.6041 68.2337 69.4149C67.0447 68.2258 66.4502 66.7843 66.4502 65.0903C66.4502 63.3962 67.0447 61.9547 68.2337 60.7655C69.4228 59.5765 70.8645 58.9819 72.5585 58.9819C74.2526 58.9819 75.694 59.5765 76.8832 60.7655C78.0723 61.9547 78.6668 63.3962 78.6668 65.0903C78.6668 66.7843 78.0723 68.2258 76.8832 69.4149C75.694 70.6041 74.2526 71.1986 72.5585 71.1986Z" fill="white"/>
<path d="M112.629 64.7483C112.531 61.6207 111.407 58.925 109.257 56.6609C107.107 54.3966 104.484 53.1344 101.39 52.8736L103.198 49.8929C103.458 49.4367 103.589 48.9318 103.589 48.3779C103.589 47.2052 103.067 46.3255 102.025 45.7391C101.569 45.4784 101.08 45.3482 100.559 45.3482C99.386 45.3482 98.4901 45.8694 97.8712 46.9119L94.3038 52.8248V43.9311C94.3038 43.084 94.0026 42.3592 93.3999 41.7565C92.7972 41.1538 92.0723 40.8525 91.2252 40.8525C90.4108 40.8525 89.7023 41.1538 89.0996 41.7565C88.4969 42.3592 88.1956 43.084 88.1956 43.9311V74.1795C88.1956 75.0266 88.4969 75.7515 89.0996 76.354C89.7023 76.9567 90.4108 77.2581 91.2252 77.2581C92.0723 77.2581 92.7972 76.9567 93.3999 76.354C94.0026 75.7515 94.3038 75.0266 94.3038 74.1795V64.9925C94.3365 63.2985 94.9473 61.8651 96.1363 60.6923C97.3256 59.5195 98.7508 58.9331 100.412 58.9331C102.074 58.9331 103.499 59.5195 104.688 60.6923C105.877 61.8651 106.488 63.2985 106.521 64.9925V74.1795C106.521 75.0266 106.822 75.7515 107.425 76.354C108.027 76.9567 108.752 77.2581 109.599 77.2581C110.414 77.2581 111.122 76.9567 111.725 76.354C112.328 75.7515 112.629 75.0266 112.629 74.1795V64.7483Z" fill="white"/>
<path d="M128.511 52.8735C125.122 52.8735 122.239 54.0628 119.861 56.4409C117.483 58.819 116.294 61.7022 116.294 65.0903C116.294 68.4783 117.483 71.3615 119.861 73.7396C122.239 76.1179 125.122 77.3069 128.511 77.3069C131.899 77.3069 134.782 76.1179 137.16 73.7396C139.538 71.3615 140.727 68.4783 140.727 65.0903C140.727 61.7022 139.538 58.819 137.16 56.4409C134.782 54.0628 131.899 52.8735 128.511 52.8735ZM128.511 71.1986C126.817 71.1986 125.375 70.6041 124.186 69.4149C122.997 68.2258 122.402 66.7843 122.402 65.0903C122.402 63.3962 122.997 61.9547 124.186 60.7655C125.375 59.5765 126.817 58.9819 128.511 58.9819C130.205 58.9819 131.646 59.5765 132.835 60.7655C134.024 61.9547 134.619 63.3962 134.619 65.0903C134.619 66.7843 134.024 68.2258 132.835 69.4149C131.646 70.6041 130.205 71.1986 128.511 71.1986Z" fill="white"/>
<path fill-rule="evenodd" clip-rule="evenodd" d="M24.9173 66.7618L24.9179 66.8589L19.0309 66.9022L17.0166 66.9171L13.466 66.943C13.1166 66.9456 12.7803 66.8865 12.469 66.7761C12.0632 66.6319 11.6976 66.4 11.3968 66.1035C10.8578 65.5725 10.5235 64.8329 10.5268 64.0139C10.5329 62.409 11.8557 61.1188 13.4605 61.1073L16.9654 61.0813L18.8111 61.0676C18.8106 61.0672 18.8107 61.0667 18.8104 61.0665C18.8106 61.0662 18.8102 61.066 18.8099 61.0656C17.905 59.1269 16.1395 57.6728 14.0085 57.1891C13.5239 57.0788 13.0203 57.0195 12.5041 57.0154C8.62767 56.9854 5.41098 60.1922 5.43076 64.069C5.45079 67.9517 8.61928 71.0785 12.5004 71.0497L15.7007 71.0263L16.712 71.0192L16.7124 71.0189L22.2331 70.9787C22.6843 70.9755 23.1102 71.0824 23.4861 71.2741L23.5269 71.2953L23.5299 71.2967L23.5672 71.3173L23.5872 71.3284L23.607 71.3399L23.6439 71.3612L23.6466 71.3629L23.6855 71.3869L23.6996 71.3956L23.7244 71.4114L23.7348 71.4183L23.7625 71.4366L23.8002 71.4621L23.8086 71.468L23.8167 71.4738L23.8544 71.5008L23.8616 71.506L23.8743 71.5156L23.9107 71.5431L23.9137 71.5454L23.9465 71.5713L23.9647 71.5858L23.982 71.6001L24.0148 71.6275L24.0168 71.6292L24.0512 71.659L24.064 71.6704L24.0851 71.6897L24.0884 71.6927L24.1184 71.7208L24.1512 71.7522L24.1589 71.7597L24.1836 71.7845L24.2048 71.8059L24.2154 71.8169L24.2466 71.8501L24.2494 71.8532L24.2772 71.8839L24.2931 71.9018L24.2958 71.9052L24.3338 71.9492L24.3355 71.9513L24.3369 71.9529L24.3657 71.9881L24.3768 72.0018L24.3941 72.0237L24.4169 72.0533L24.422 72.0599L24.4491 72.0966L24.4558 72.1057L24.4759 72.1337L24.4935 72.1591L24.5018 72.1712L24.5271 72.2094L24.5297 72.2135L24.5517 72.2478L24.5647 72.2686L24.5759 72.2869L24.5986 72.325L24.5994 72.3263L24.6222 72.366L24.6311 72.3819L24.6444 72.4062L24.6622 72.4399L24.6658 72.447L24.6866 72.4881L24.6918 72.4985L24.7067 72.5295L24.7202 72.5582L24.7263 72.5714L24.7449 72.6134L24.7472 72.6184L24.7519 72.6298C24.7676 72.6665 24.7826 72.7039 24.7966 72.7414L24.7971 72.7425L24.8129 72.7863L24.8259 72.8244L24.828 72.8301L24.8402 72.8672L24.8426 72.8745L24.8562 72.9193L24.8597 72.9313L24.8603 72.9332L24.8739 72.982L24.8777 72.9958L24.8812 73.0097L24.8928 73.0554L24.9128 73.1456L24.9132 73.1476L24.9224 73.1935V73.1941L24.9306 73.2409L24.9338 73.2607L24.9381 73.2881L24.944 73.3283L24.9447 73.3356L24.9507 73.3831L24.955 73.4248L24.9561 73.4365L24.9597 73.4792L24.9631 73.5277L24.9654 73.5707L24.9658 73.5812L24.9673 73.6229V73.6251L24.9683 73.674L24.9681 73.6741L24.9684 73.709L24.9683 73.7091L24.9679 73.7442L24.967 73.7789L24.9669 73.7791L24.9658 73.8136L24.9656 73.8137L24.964 73.8484L24.9639 73.8485L24.9619 73.8829L24.9617 73.883L24.9592 73.9173L24.9562 73.9515L24.9561 73.9518L24.9527 73.9859L24.9489 74.0198L24.9487 74.02L24.9446 74.0537L24.9445 74.0538L24.9401 74.0876L24.94 74.0877L24.9347 74.1213L24.9293 74.1548L24.9236 74.1881L24.9233 74.1884L24.9171 74.2214L24.9169 74.2216L24.9103 74.2546L24.903 74.2874L24.9029 74.2876L24.8955 74.3202L24.8954 74.3205L24.8876 74.3529L24.8875 74.3531L24.8792 74.3855L24.8706 74.4179L24.8705 74.418L24.8615 74.4499L24.8612 74.4501L24.8519 74.482L24.8518 74.4821L24.8421 74.5138L24.8419 74.5139L24.8318 74.5457L24.8213 74.577L24.821 74.5771L24.8101 74.6084L24.81 74.6086L24.7989 74.6396L24.7986 74.6397L24.787 74.6707L24.775 74.7015L24.7748 74.7016L24.7626 74.7321L24.7624 74.7324L24.7497 74.7624L24.7494 74.7625L24.7365 74.7928L24.7364 74.793L24.7229 74.8229L24.7088 74.8527L24.6947 74.8824L24.6946 74.8825L24.6801 74.9118L24.6799 74.912L24.6653 74.9412L24.6652 74.9413L24.6499 74.9701L24.6498 74.9704L24.6344 74.999L24.6342 74.9992L24.6183 75.0277L24.6182 75.028L24.6019 75.0561L24.6018 75.0564L24.5853 75.0843L24.5852 75.0844L24.5684 75.1124L24.5683 75.1126L24.5511 75.1401L24.551 75.1404L24.5336 75.1677L24.5333 75.1678L24.5155 75.195L24.5153 75.1952L24.4971 75.222L24.497 75.2223L24.4786 75.2489L24.4785 75.2491L24.4598 75.2755L24.4597 75.2757L24.4406 75.3019L24.4404 75.3021L24.421 75.3282L24.4209 75.3284L24.4011 75.354L24.401 75.3542L24.3811 75.3796L24.381 75.3799L24.3607 75.4051L24.3605 75.4052L24.34 75.4303L24.3189 75.4553L24.2977 75.4799L24.2976 75.4801L24.2762 75.5043L24.2541 75.5284L24.232 75.5523L24.2096 75.5759L24.1868 75.5992L24.1639 75.6223L24.1406 75.6452L24.117 75.6676L24.0933 75.6899L24.0692 75.7118L24.0449 75.7336L24.0203 75.755L23.9955 75.776L23.9704 75.7968L23.9703 75.7969L23.9451 75.8172L23.9449 75.8173L23.9195 75.8374L23.9192 75.8375L23.8936 75.8573L23.8934 75.8574L23.8674 75.8769L23.8411 75.8962L23.841 75.8963L23.8146 75.9151L23.8144 75.9152L23.7878 75.9338L23.7876 75.934L23.7607 75.9523L23.7334 75.9702L23.7333 75.9705L23.7059 75.988L23.7058 75.9881L23.6781 76.0052L23.6502 76.0224L23.6501 76.0225L23.622 76.0391L23.6219 76.0393L23.5936 76.0556L23.5649 76.0715L23.5648 76.0717L23.5361 76.0874L23.5071 76.1025L23.5068 76.1027L23.4778 76.1176L23.4777 76.1178L23.4484 76.1326L23.4186 76.1469L23.3889 76.1607L23.3888 76.161L23.3588 76.1744L23.3284 76.1878L23.2981 76.2006L23.298 76.2007L23.2673 76.2132L23.2367 76.2253L23.2364 76.2255L23.2055 76.2372L23.1743 76.2486L23.143 76.2598L23.1115 76.2704L23.0797 76.2808L23.0479 76.2907L23.0477 76.2908L23.0158 76.3005L22.9835 76.3096L22.9511 76.3185L22.9185 76.3269L22.8859 76.3349L22.8532 76.3425L22.8199 76.3497L22.7869 76.3564L22.7867 76.3566L22.7535 76.3629L22.7202 76.369L22.6865 76.3745L22.6527 76.3798L22.6189 76.3846L22.5849 76.3889L22.5508 76.393L22.5165 76.3964L22.482 76.3995L22.4475 76.4021L22.4129 76.4044L22.3782 76.4061L22.3434 76.4075L22.3083 76.4085L22.2733 76.4089L12.6225 76.4799L8.49896 75.8107C8.35486 75.7614 8.21164 75.7095 8.06979 75.6551L8.04475 75.6456C7.97639 75.6193 7.90816 75.592 7.84043 75.5644L7.83442 75.5622C7.7623 75.5329 7.69044 75.5026 7.61895 75.472L7.60831 75.4674C7.5382 75.4372 7.46809 75.4066 7.39861 75.3753L7.3941 75.3733C7.32274 75.341 7.2515 75.3079 7.18114 75.2745L7.17275 75.2705C7.10815 75.2398 7.0438 75.2085 6.97995 75.1767L6.95178 75.1627C6.81769 75.0957 6.68536 75.0266 6.55403 74.9549L6.52899 74.9413C6.39428 74.8675 6.26132 74.7915 6.12948 74.7128L6.12535 74.7102C6.05837 74.6703 5.99177 74.6298 5.92579 74.5888L5.92454 74.5879C5.85793 74.5465 5.79183 74.5041 5.72597 74.4616L5.72084 74.4584L5.54982 74.3451L5.51489 74.3217C5.45555 74.2817 5.39671 74.241 5.33824 74.1998L5.31545 74.1839L5.16084 74.073L5.12215 74.0445L4.95902 73.9232L4.94838 73.9151L4.93047 73.9012L4.77873 73.7835L4.74506 73.7568L4.58643 73.6291L4.57667 73.6212L4.57278 73.618C4.51895 73.5739 4.46549 73.5292 4.41241 73.4839L4.37184 73.4491L4.25216 73.3451L4.20233 73.3015L4.05247 73.1662L4.01966 73.1356L3.90336 73.0268L3.84764 72.9741L3.83775 72.9647L3.72019 72.8504L3.69841 72.8289L3.66573 72.7961L3.56883 72.6984L3.50836 72.6364L3.37678 72.4987L3.36826 72.4898L3.34648 72.4662L3.23505 72.345L3.17909 72.2828L3.15555 72.2569L3.15731 72.2582C2.12456 71.0999 1.30239 69.7518 0.756905 68.2738V68.2735C0.273519 66.9647 0.00672385 65.5544 8.8409e-05 64.0844C-0.00178955 63.5763 0.0262546 63.075 0.0838453 62.5826L0.0837199 62.5825C0.41111 59.7586 1.68499 57.2197 3.58147 55.2952C5.35113 53.4996 7.66252 52.2384 10.2531 51.7774C10.1539 51.7823 10.0548 51.7883 9.95601 51.7957C9.95526 51.7958 9.95463 51.7958 9.95463 51.7958C9.95375 51.7958 9.95375 51.7958 9.95375 51.7958C9.85885 51.8027 9.76433 51.8108 9.67031 51.8202C10.3007 51.6708 10.9498 51.5699 11.614 51.5208C11.614 51.5208 11.614 51.5209 11.6147 51.521C11.6151 51.5206 11.6157 51.5206 11.6165 51.5205C11.8928 51.4998 12.1717 51.4887 12.4534 51.4867C15.8908 51.4615 19.013 52.8317 21.2822 55.0677C21.9509 55.7267 22.5456 56.4612 23.0524 57.2571C23.763 58.3724 24.3003 59.6082 24.628 60.9279C24.8128 61.6746 24.9307 62.4483 24.9744 63.2422C24.9853 63.4414 24.9915 63.6416 24.993 63.8431L25.0145 66.761L24.9173 66.7618ZM19.2001 62.4978L19.2002 62.4979L19.2013 62.5033L19.2012 62.5031L19.2002 62.4979L19.1992 62.4922L19.2001 62.4978ZM19.2073 62.5358L19.2074 62.5359L19.2063 62.5306L19.2073 62.5358ZM19.2394 62.7163L19.2395 62.7165L19.2385 62.711L19.2394 62.7163ZM19.2411 62.7272L19.2412 62.7275L19.2404 62.7218L19.2411 62.7272ZM19.2439 62.7438L19.244 62.744L19.2431 62.7384L19.2439 62.7438ZM19.2456 62.7548L19.2459 62.7549L19.2449 62.7494L19.2456 62.7548ZM19.2536 62.8043L19.2538 62.8045L19.2529 62.7987L19.2536 62.8043ZM19.2554 62.8152L19.2555 62.8155L19.2545 62.8099L19.2554 62.8152ZM19.2545 62.8099L19.2538 62.8045L19.2545 62.8099ZM19.2536 62.8041L19.2528 62.7986L19.2536 62.8041ZM19.2528 62.7986L19.2519 62.7932L19.2528 62.7986ZM19.2519 62.7932L19.2509 62.7876L19.2519 62.7932ZM19.2509 62.7876L19.2501 62.7822L19.2509 62.7876ZM19.2501 62.7822L19.2491 62.7767L19.2501 62.7822ZM19.2491 62.7767L19.249 62.7762L19.2491 62.7767ZM19.249 62.7762L19.2484 62.7713L19.249 62.7762ZM19.2484 62.7713L19.2474 62.7657L19.2484 62.7713ZM19.2474 62.7657L19.2466 62.7603L19.2474 62.7657ZM19.2464 62.7602L19.2455 62.7548L19.2464 62.7602ZM19.2455 62.7545L19.2445 62.749L19.2455 62.7545ZM19.2445 62.749L19.2436 62.7436L19.2445 62.749ZM19.2436 62.7434L19.2432 62.7421L19.2436 62.7434ZM19.2432 62.7421L19.2427 62.738L19.2432 62.7421ZM19.2422 62.7366L19.2414 62.731L19.2422 62.7366ZM19.2101 62.5562L19.2091 62.5507L19.2101 62.5562ZM19.2091 62.5507L19.2081 62.5461L19.2091 62.5507ZM19.2081 62.5461L19.2079 62.5453L19.2081 62.5461ZM19.2079 62.5453L19.2069 62.5397L19.2079 62.5453ZM19.2069 62.5397L19.2058 62.5343L19.2069 62.5397ZM19.2029 62.5179L19.2018 62.5125L19.2029 62.5179ZM19.2018 62.5125L19.2007 62.5071L19.2018 62.5125ZM19.2007 62.5071L19.1998 62.5016L19.2007 62.5071ZM19.1998 62.5016L19.1987 62.4961L19.1998 62.5016ZM19.2051 62.5289L19.2058 62.5343L19.2051 62.5289ZM19.2123 62.5671L19.2133 62.5726L19.2145 62.578L19.2155 62.5836L19.2213 62.6162L19.2223 62.6217L19.2252 62.6381L19.2256 62.6406L19.2281 62.6545L19.2291 62.66L19.232 62.6764L19.233 62.6819L19.2345 62.6908L19.235 62.6928L19.2359 62.6983L19.2369 62.7038L19.2376 62.7093L19.2396 62.7201L19.2406 62.7256L19.2123 62.5671ZM11.2947 73.7777C11.2947 73.7777 11.2945 73.7775 11.2941 73.7777H11.2947ZM12.5972 76.3417C12.5189 76.3423 12.4412 76.3418 12.3634 76.3409L12.3242 76.3405C12.2531 76.3394 12.182 76.3382 12.1111 76.3359L12.0932 76.3354L12.0736 76.3348C12.0024 76.3323 11.9311 76.3291 11.8601 76.3255L11.8106 76.3226L11.6164 76.3102L11.5853 76.3082C11.5063 76.3025 11.4273 76.2956 11.3488 76.2884L11.3381 76.2874C11.2651 76.2806 11.1922 76.2732 11.1196 76.2649L11.087 76.2613C10.935 76.2439 10.7838 76.2239 10.6337 76.2011L10.5921 76.1948C10.5171 76.1829 10.4424 76.171 10.3679 76.158L10.3663 76.1579C10.2887 76.1445 10.2114 76.13 10.1343 76.1151L10.1198 76.112C9.96477 76.0819 9.81078 76.0488 9.65754 76.013L9.63826 76.0084C9.56652 75.9914 9.49503 75.9738 9.42404 75.9557L9.40802 75.9515C9.26029 75.9137 9.11343 75.873 8.9677 75.83L8.93139 75.8192C8.85916 75.7974 8.78692 75.7754 8.7153 75.7525C8.64357 75.7297 8.57208 75.7059 8.50097 75.6819C8.57195 75.706 8.64357 75.7297 8.7153 75.7525L12.5972 76.3417ZM8.50097 75.6819L8.47367 75.6725L8.50097 75.6819ZM24.7266 72.4916C24.7423 72.5283 24.7573 72.5655 24.7713 72.6032L24.7266 72.4916Z" fill="white"/>
<path d="M133.89 43.6686C132.957 44.1882 131.973 44.3011 130.94 44.0071C129.906 43.7126 129.139 43.117 128.64 42.2199C128.12 41.2868 128.007 40.303 128.301 39.2691C128.596 38.2355 129.209 37.4587 130.142 36.9392C131.075 36.4199 132.05 36.3118 133.066 36.6159C134.082 36.9202 134.849 37.539 135.369 38.472C135.869 39.3695 135.98 40.3298 135.704 41.3535C135.428 42.3774 134.823 43.1488 133.89 43.6686ZM136.481 31.111L136.374 31.1716L132.715 24.7124L131.462 22.5026L129.255 18.6065C129.038 18.2232 128.897 17.8166 128.828 17.4056C128.738 16.8703 128.769 16.3254 128.911 15.8119C129.166 14.8922 129.775 14.0703 130.679 13.5714C132.451 12.5937 134.684 13.2594 135.681 15.0207L137.86 18.8657L139.008 20.8904C139.008 20.8899 139.009 20.8897 139.009 20.8888C139.009 20.8892 139.009 20.8885 139.009 20.8882C140.59 18.7017 141.108 15.8643 140.334 13.22C140.158 12.6188 139.915 12.0279 139.603 11.4562C137.257 7.16758 131.751 5.59072 127.492 7.99087C123.227 10.3954 121.726 15.804 124.139 20.0625L126.128 23.5738L126.756 24.6834L126.756 24.6835L130.188 30.7413C130.468 31.2365 130.612 31.7707 130.631 32.3028L130.633 32.3606L130.633 32.3649V32.4189V32.4475L130.633 32.4765L130.632 32.5302L130.632 32.5337L130.629 32.5912L130.629 32.6127L130.626 32.6497L130.625 32.6651L130.622 32.7071L130.617 32.7642L130.616 32.7775L130.614 32.7893L130.608 32.8477L130.606 32.8586L130.603 32.8788L130.595 32.9358L130.595 32.9401L130.587 32.9921L130.582 33.0215L130.576 33.0492L130.566 33.1021L130.566 33.1054L130.554 33.1615L130.549 33.1825L130.541 33.2176L130.54 33.2233L130.527 33.2732L130.513 33.329L130.509 33.3419L130.498 33.3843L130.486 33.4208L130.481 33.439L130.463 33.4939L130.462 33.499L130.445 33.5482L130.435 33.5766L130.433 33.5821L130.408 33.6508L130.406 33.6538L130.406 33.6566L130.385 33.71L130.377 33.7305L130.362 33.7632L130.344 33.806L130.34 33.8159L130.316 33.8685L130.31 33.8812L130.292 33.9207L130.274 33.9556L130.267 33.9721L130.24 34.0232L130.237 34.0289L130.212 34.0742L130.198 34.1013L130.184 34.1246L130.156 34.1728L130.155 34.1747L130.125 34.2244L130.114 34.2439L130.095 34.2735L130.068 34.3139L130.063 34.3223L130.03 34.3699L130.022 34.3824L129.997 34.4182L129.974 34.4505L129.963 34.4649L129.928 34.5115L129.924 34.517L129.914 34.5291C129.884 34.5686 129.852 34.6084 129.819 34.6467L129.818 34.6482L129.779 34.6924L129.745 34.7301L129.74 34.7355L129.707 34.7721L129.701 34.7792L129.66 34.8214L129.648 34.8326L129.647 34.8342L129.601 34.8793L129.588 34.8923L129.575 34.9047L129.532 34.945L129.445 35.0224L129.443 35.0247L129.398 35.0626L129.397 35.0629L129.351 35.101L129.331 35.1166L129.303 35.1381L129.263 35.1693L129.255 35.1745L129.206 35.2098L129.163 35.2406L129.151 35.2488L129.106 35.2789L129.055 35.3127L129.009 35.3414L128.998 35.3482L128.953 35.3752L128.95 35.3767L128.897 35.4079L128.858 35.4293L128.858 35.4298L128.819 35.4508L128.78 35.471H128.78L128.741 35.4907L128.702 35.5103H128.702L128.663 35.529L128.662 35.5292L128.623 35.5476L128.583 35.565H128.583L128.544 35.5824L128.504 35.5984H128.504L128.464 35.6147L128.464 35.6145L128.424 35.6305H128.423L128.383 35.6454L128.343 35.6598L128.303 35.6742L128.303 35.6741L128.262 35.6872H128.262L128.222 35.7002L128.181 35.7132L128.181 35.7127L128.14 35.7244L128.099 35.7355L128.099 35.736L128.058 35.7467L128.017 35.7564H128.017L127.976 35.7665L127.935 35.7757L127.935 35.7752L127.894 35.7844V35.7841L127.852 35.7928L127.812 35.7999L127.812 35.8004L127.77 35.8071H127.77L127.729 35.8138L127.729 35.8137L127.688 35.8202L127.646 35.8256L127.646 35.8252L127.605 35.8306L127.563 35.8346L127.563 35.8351L127.522 35.8389L127.522 35.8392L127.481 35.8425L127.439 35.845L127.398 35.8481L127.398 35.8478L127.356 35.85L127.356 35.8498L127.315 35.8517L127.315 35.8515L127.274 35.8525L127.273 35.8522L127.232 35.8533L127.232 35.853H127.19L127.149 35.8527V35.8522L127.108 35.8512L127.067 35.8498V35.8496L127.025 35.8478H127.025L126.984 35.8455L126.943 35.8425V35.8422L126.902 35.8387L126.902 35.8384L126.861 35.8346L126.861 35.8352L126.82 35.8306L126.779 35.8254L126.738 35.8202H126.738L126.698 35.8137L126.698 35.814L126.657 35.8075H126.657L126.617 35.8008L126.617 35.8006L126.576 35.7939L126.536 35.7855L126.496 35.777H126.496L126.456 35.7681L126.416 35.7591L126.376 35.7492L126.336 35.7388L126.296 35.7285L126.257 35.717L126.218 35.7059L126.178 35.6935L126.139 35.681L126.1 35.6673L126.061 35.6545L126.022 35.6403L125.984 35.6259L125.946 35.6115L125.946 35.611L125.908 35.5954H125.908L125.87 35.58L125.87 35.5797L125.832 35.5634L125.794 35.5469L125.757 35.53L125.757 35.5292L125.72 35.5121L125.72 35.5118L125.683 35.4942H125.682L125.646 35.4755L125.609 35.4565H125.609L125.573 35.4367L125.573 35.4369L125.537 35.4172L125.501 35.3965L125.465 35.3758L125.465 35.3756L125.43 35.3547L125.394 35.3328L125.36 35.311L125.325 35.2883V35.288L125.29 35.2652L125.29 35.2648L125.256 35.2418L125.222 35.2181L125.188 35.1939L125.188 35.1934L125.155 35.1688L125.121 35.144L125.089 35.1179H125.088L125.056 35.0919L125.024 35.0654H125.023L124.991 35.0384L124.96 35.0114L124.928 34.9836L124.897 34.9552L124.866 34.9266L124.836 34.8978L124.836 34.8981L124.805 34.8685L124.776 34.8384L124.746 34.8083L124.716 34.7777L124.688 34.7461L124.659 34.7149L124.631 34.6831L124.603 34.6503L124.603 34.6506L124.576 34.6177L124.549 34.5849L124.522 34.5509L124.495 34.517L124.47 34.4826L124.444 34.448L124.418 34.4127L124.394 34.3767L124.369 34.3413L124.344 34.305L124.321 34.2681L124.298 34.2305L124.275 34.1932L124.252 34.1557L124.23 34.1169L118.231 23.5282L116.439 18.575C116.405 18.3857 116.374 18.1963 116.347 18.0063L116.342 17.973C116.329 17.8817 116.317 17.7897 116.306 17.6981L116.305 17.69C116.293 17.5929 116.282 17.4952 116.272 17.3977L116.271 17.383C116.261 17.2873 116.252 17.1914 116.243 17.0956L116.243 17.0893C116.234 16.991 116.227 16.892 116.221 16.7937L116.22 16.7822C116.214 16.6926 116.209 16.6023 116.205 16.5122L116.203 16.4726C116.195 16.2839 116.19 16.096 116.188 15.9068L116.188 15.8714C116.187 15.6776 116.189 15.4847 116.195 15.2909L116.195 15.2845C116.198 15.1864 116.201 15.0887 116.206 14.9905L116.207 14.9885C116.212 14.8893 116.217 14.7909 116.224 14.6917L116.224 14.6845L116.244 14.4266L116.249 14.3738C116.256 14.2842 116.264 14.1943 116.274 14.104L116.278 14.0694L116.305 13.8308L116.312 13.7711L116.346 13.5168L116.349 13.5003L116.353 13.4719L116.389 13.2326L116.398 13.1797L116.442 12.9258L116.444 12.9106L116.446 12.9039C116.461 12.8178 116.478 12.7317 116.495 12.6454L116.508 12.5792L116.55 12.3835L116.567 12.3017L116.624 12.0541L116.638 11.9988L116.686 11.8037L116.71 11.7101L116.715 11.6937L116.768 11.4943L116.779 11.4567L116.795 11.4006L116.843 11.2341L116.874 11.1296L116.945 10.8997L116.95 10.8845L116.962 10.8465L117.028 10.6496L117.061 10.5495L117.076 10.5075V10.5107C117.718 8.66193 118.699 6.92945 119.992 5.42183L119.993 5.42133C121.138 4.08547 122.527 2.92665 124.143 2.01734C124.702 1.70385 125.271 1.42716 125.849 1.18841C129.161 -0.18337 132.74 -0.337489 136.023 0.570816C139.088 1.41903 141.895 3.19107 143.992 5.76261C143.926 5.65657 143.858 5.55078 143.79 5.44662C143.789 5.44637 143.788 5.44511 143.788 5.44511C143.788 5.44424 143.788 5.44424 143.788 5.44424C143.722 5.3437 143.655 5.2443 143.588 5.14689C144.139 5.74997 144.648 6.40312 145.11 7.10485C145.11 7.10485 145.11 7.10485 145.11 7.1056C145.111 7.1056 145.111 7.10623 145.111 7.10685C145.304 7.39881 145.487 7.69904 145.662 8.0084C147.799 11.7797 148.205 16.0604 147.133 19.9317C146.818 21.0731 146.373 22.179 145.807 23.2252C145.015 24.6922 143.983 26.0423 142.73 27.2131C142.021 27.8749 141.241 28.4796 140.393 29.015C140.18 29.1492 139.964 29.278 139.743 29.4037L136.541 31.2176L136.481 31.111ZM137.671 22.1962L137.671 22.1966L137.666 22.2009L137.665 22.2005L137.671 22.1966L137.676 22.192L137.671 22.1962ZM137.633 22.2277V22.2279L137.638 22.2233L137.633 22.2277ZM137.454 22.3739L137.459 22.3694L137.454 22.3739ZM137.443 22.3824V22.3831L137.449 22.3783L137.443 22.3824ZM137.427 22.3953V22.3962L137.432 22.3915L137.427 22.3953ZM137.415 22.4043L137.421 22.4003L137.415 22.4043ZM137.366 22.4435L137.366 22.4439L137.372 22.4395L137.366 22.4435ZM137.355 22.4521V22.4524L137.36 22.4481L137.355 22.4521ZM137.36 22.4481L137.366 22.4439L137.36 22.4481ZM137.372 22.4395L137.377 22.4349L137.372 22.4395ZM137.377 22.4349L137.383 22.4306L137.377 22.4349ZM137.383 22.4306L137.388 22.4262L137.383 22.4306ZM137.388 22.4262L137.393 22.4222L137.388 22.4262ZM137.393 22.4222L137.399 22.418L137.393 22.4222ZM137.399 22.418L137.399 22.4172L137.399 22.418ZM137.399 22.4172L137.405 22.4133L137.399 22.4172ZM137.405 22.4133L137.41 22.4086L137.405 22.4133ZM137.41 22.4086L137.415 22.4043L137.41 22.4086ZM137.421 22.4003L137.427 22.3962L137.421 22.4003ZM137.432 22.3915L137.437 22.3875L137.432 22.3915ZM137.437 22.3875L137.443 22.3831L137.437 22.3875ZM137.449 22.3783L137.45 22.3774L137.449 22.3783ZM137.45 22.3774L137.454 22.3739L137.45 22.3774ZM137.459 22.3694L137.465 22.3652L137.459 22.3694ZM137.638 22.2233L137.644 22.2186L137.638 22.2233ZM137.644 22.2186L137.649 22.2151L137.644 22.2186ZM137.649 22.2151L137.649 22.2145L137.649 22.2151ZM137.649 22.2145L137.655 22.2101L137.649 22.2145ZM137.655 22.2101L137.66 22.2056L137.655 22.2101ZM137.676 22.192L137.682 22.1877L137.676 22.192ZM137.682 22.1877L137.687 22.1833L137.682 22.1877ZM137.687 22.1833L137.692 22.1787L137.687 22.1833ZM137.692 22.1787L137.697 22.1743L137.692 22.1787ZM137.666 22.2009L137.66 22.2056L137.666 22.2009ZM137.622 22.2367L137.617 22.2412L137.611 22.2456L137.606 22.2503L137.574 22.2766L137.568 22.2812L137.552 22.2945L137.549 22.2966L137.536 22.3078L137.53 22.3123L137.514 22.3257L137.508 22.3301L137.5 22.3372L137.498 22.3385L137.492 22.3436L137.487 22.348L137.481 22.352L137.47 22.3609L137.465 22.3652L137.622 22.2367ZM120.257 20.5203C120.257 20.5203 120.257 20.5197 120.256 20.5197L120.257 20.5203ZM118.231 23.5282C118.183 23.4424 118.135 23.3561 118.089 23.2705L118.065 23.2271C118.023 23.1481 117.981 23.0681 117.939 22.9891L117.929 22.9694L117.918 22.947C117.876 22.8674 117.836 22.7869 117.797 22.7065L117.77 22.6499L117.664 22.4283L117.647 22.3929C117.605 22.302 117.564 22.211 117.524 22.1201L117.518 22.1076C117.481 22.0232 117.445 21.9382 117.41 21.8534L117.393 21.8151C117.319 21.6371 117.249 21.4578 117.182 21.2787L117.163 21.2292C117.13 21.1391 117.097 21.0495 117.065 20.9599L117.065 20.9575C117.032 20.8635 117.001 20.7701 116.97 20.6761L116.964 20.6582C116.902 20.4689 116.844 20.2788 116.79 20.0883L116.783 20.0639C116.758 19.9742 116.734 19.8852 116.71 19.7954L116.704 19.7754C116.656 19.5891 116.61 19.403 116.569 19.2162L116.558 19.169C116.538 19.0758 116.517 18.9833 116.499 18.8901C116.48 18.797 116.462 18.7036 116.445 18.6106C116.462 18.7036 116.48 18.797 116.499 18.8901L118.231 23.5282ZM116.445 18.6106L116.439 18.575L116.445 18.6106ZM129.914 34.5291C129.884 34.5686 129.852 34.6083 129.819 34.6467L129.914 34.5291Z" fill="white"/>
</svg>
