<svg width="36" height="36" viewBox="0 0 36 36" fill="none" xmlns="http://www.w3.org/2000/svg">
<path fill-rule="evenodd" clip-rule="evenodd" d="M18 36C27.9411 36 36 27.9411 36 18C36 8.05888 27.9411 0 18 0C8.05888 0 0 8.05888 0 18C0 27.9411 8.05888 36 18 36Z" fill="#27AE60"/>
<path fill-rule="evenodd" clip-rule="evenodd" d="M8 18C8 12.478 12.477 7.99999 18 7.99999C23.523 7.99999 28 12.478 28 18C28 23.522 23.523 28 18 28C12.477 28 8 23.522 8 18ZM17.999 26C13.588 26 9.99902 22.411 9.99902 18C9.99902 13.589 13.588 9.99998 17.999 9.99998C22.41 9.99998 25.999 13.589 25.999 18C25.999 22.411 22.41 26 17.999 26ZM20.7034 14.3945L16.9194 19.3635L15.2864 17.2775C14.9464 16.8415 14.3164 16.7655 13.8824 17.1065C13.4474 17.4465 13.3704 18.0755 13.7114 18.5095L16.1424 21.6165C16.3324 21.8585 16.6224 21.9995 16.9304 21.9995H16.9374C17.2464 21.9985 17.5384 21.8525 17.7254 21.6055L22.2944 15.6055C22.6294 15.1655 22.5444 14.5395 22.1044 14.2045C21.6634 13.8695 21.0374 13.9555 20.7034 14.3945Z" fill="white"/>
<mask id="mask0" style="mask-type:alpha" maskUnits="userSpaceOnUse" x="8" y="8" width="20" height="20">
<path fill-rule="evenodd" clip-rule="evenodd" d="M8 18C8 12.478 12.477 7.99999 18 7.99999C23.523 7.99999 28 12.478 28 18C28 23.522 23.523 28 18 28C12.477 28 8 23.522 8 18ZM17.999 26C13.588 26 9.99902 22.411 9.99902 18C9.99902 13.589 13.588 9.99998 17.999 9.99998C22.41 9.99998 25.999 13.589 25.999 18C25.999 22.411 22.41 26 17.999 26ZM20.7034 14.3945L16.9194 19.3635L15.2864 17.2775C14.9464 16.8415 14.3164 16.7655 13.8824 17.1065C13.4474 17.4465 13.3704 18.0755 13.7114 18.5095L16.1424 21.6165C16.3324 21.8585 16.6224 21.9995 16.9304 21.9995H16.9374C17.2464 21.9985 17.5384 21.8525 17.7254 21.6055L22.2944 15.6055C22.6294 15.1655 22.5444 14.5395 22.1044 14.2045C21.6634 13.8695 21.0374 13.9555 20.7034 14.3945Z" fill="white"/>
</mask>
<g mask="url(#mask0)">
</g>
</svg>
